<?xml version="1.0" standalone="no"?>
<!DOCTYPE svg PUBLIC "-//W3C//DTD SVG 20010904//EN"
 "http://www.w3.org/TR/2001/REC-SVG-20010904/DTD/svg10.dtd">
<svg version="1.0" xmlns="http://www.w3.org/2000/svg"
 width="256.000000pt" height="256.000000pt" viewBox="0 0 256.000000 256.000000"
 preserveAspectRatio="xMidYMid meet">

<g transform="translate(0.000000,256.000000) scale(0.100000,-0.100000)"
fill="#000000" stroke="none">
<path d="M1116 2544 c-198 -26 -401 -104 -563 -216 -99 -68 -253 -221 -320
-320 -113 -164 -187 -355 -217 -561 -20 -130 -20 -177 -1 -320 19 -148 54
-267 115 -394 67 -141 138 -241 250 -353 112 -112 212 -183 353 -250 132 -63
251 -97 413 -117 122 -16 140 -16 265 0 175 21 287 54 434 127 137 68 228 133
336 240 105 104 170 195 239 335 70 141 104 254 126 414 31 237 -18 511 -134
736 -192 373 -553 624 -979 680 -134 18 -184 18 -317 -1z m479 -628 c140 -36
271 -103 345 -175 43 -42 69 -60 96 -64 152 -25 256 -301 174 -462 -29 -55
-62 -83 -111 -94 -78 -18 -97 12 -153 234 -55 221 -60 262 -40 293 17 26 17
26 -27 65 -24 21 -80 56 -125 77 -326 160 -838 123 -1064 -78 -42 -37 -43 -39
-32 -71 14 -38 2 -111 -53 -318 -52 -196 -68 -219 -144 -202 -48 11 -82 38
-111 90 -22 39 -25 56 -25 144 0 87 4 107 26 156 46 99 127 169 193 169 18 0
43 17 84 58 72 71 163 125 266 158 143 45 216 54 416 50 160 -3 198 -7 285
-30z m-155 -130 c115 -16 232 -43 351 -82 l75 -24 -4 -58 c-3 -40 5 -96 27
-189 56 -247 88 -325 139 -348 20 -9 22 -16 22 -102 l0 -91 -62 -42 c-75 -49
-202 -112 -281 -139 l-58 -20 -39 62 c-22 34 -40 67 -40 73 0 6 27 23 60 39
89 42 59 53 -46 16 -208 -71 -417 -69 -622 5 -94 34 -117 19 -32 -21 33 -16
60 -34 60 -39 0 -6 -18 -39 -40 -73 l-41 -62 -57 20 c-81 28 -207 90 -279 139
l-63 42 0 91 c0 86 2 93 22 102 31 14 64 66 82 128 56 191 80 307 80 384 l1
83 35 14 c62 25 322 85 405 95 120 13 189 12 305 -3z"/>
<path d="M946 1349 c-45 -35 -62 -83 -58 -162 3 -41 68 -106 113 -113 135 -22
211 171 104 265 -29 26 -44 31 -84 31 -34 0 -56 -6 -75 -21z"/>
<path d="M1555 1294 c-49 -14 -107 -29 -128 -35 -34 -9 -38 -13 -35 -37 3 -25
10 -28 142 -65 76 -20 140 -36 142 -35 1 2 4 16 6 33 3 28 0 30 -54 45 -31 8
-59 18 -62 21 -4 3 23 14 59 24 50 13 65 21 61 32 -3 8 -6 21 -6 29 0 19 -19
17 -125 -12z"/>
</g>
</svg>
